<svg width="24" height="24" viewBox="0 0 24 24" fill="none" xmlns="http://www.w3.org/2000/svg">
<g clip-path="url(#clip0_15099_1308)">
<path d="M22.5 21H5.5C4.83696 21 4.20107 20.7366 3.73223 20.2678C3.26339 19.7989 3 19.163 3 18.5V1.5C3 1.10218 2.84196 0.720644 2.56066 0.43934C2.27936 0.158035 1.89782 0 1.5 0C1.10218 0 0.720644 0.158035 0.43934 0.43934C0.158035 0.720644 0 1.10218 0 1.5L0 18.5C0.00158817 19.9582 0.581561 21.3562 1.61267 22.3873C2.64377 23.4184 4.0418 23.9984 5.5 24H22.5C22.8978 24 23.2794 23.842 23.5607 23.5607C23.842 23.2794 24 22.8978 24 22.5C24 22.1022 23.842 21.7206 23.5607 21.4393C23.2794 21.158 22.8978 21 22.5 21Z" fill="#313135"/>
<path d="M9.5 9C9.10218 9 8.72064 9.15804 8.43934 9.43934C8.15804 9.72064 8 10.1022 8 10.5V17.5C8 17.8978 8.15804 18.2794 8.43934 18.5607C8.72064 18.842 9.10218 19 9.5 19C9.89782 19 10.2794 18.842 10.5607 18.5607C10.842 18.2794 11 17.8978 11 17.5V10.5C11 10.1022 10.842 9.72064 10.5607 9.43934C10.2794 9.15804 9.89782 9 9.5 9Z" fill="#313135"/>
<path d="M14 13.5V17.5C14 17.8978 14.158 18.2794 14.4393 18.5607C14.7206 18.842 15.1022 19 15.5 19C15.8978 19 16.2794 18.842 16.5607 18.5607C16.842 18.2794 17 17.8978 17 17.5V13.5C17 13.1022 16.842 12.7206 16.5607 12.4393C16.2794 12.158 15.8978 12 15.5 12C15.1022 12 14.7206 12.158 14.4393 12.4393C14.158 12.7206 14 13.1022 14 13.5Z" fill="#313135"/>
<path d="M20 9.5V17.5C20 17.8978 20.158 18.2794 20.4393 18.5607C20.7206 18.842 21.1022 19 21.5 19C21.8978 19 22.2794 18.842 22.5607 18.5607C22.842 18.2794 23 17.8978 23 17.5V9.5C23 9.10218 22.842 8.72064 22.5607 8.43934C22.2794 8.15804 21.8978 8 21.5 8C21.1022 8 20.7206 8.15804 20.4393 8.43934C20.158 8.72064 20 9.10218 20 9.5Z" fill="#313135"/>
<path d="M5.99958 7.49991C6.34004 7.50063 6.67044 7.3845 6.93558 7.17091L9.21358 5.34991C9.67357 4.98062 10.2538 4.79433 10.8428 4.82681C11.4318 4.8593 11.988 5.10828 12.4046 5.52591C13.366 6.4751 14.6467 7.0318 15.9966 7.08727C17.3465 7.14275 18.6685 6.69301 19.7046 5.82591L23.4686 2.64091C23.6289 2.51696 23.7625 2.36179 23.8613 2.18478C23.96 2.00776 24.0218 1.81258 24.043 1.611C24.0642 1.40943 24.0444 1.20565 23.9846 1.01196C23.9249 0.818282 23.8265 0.638717 23.6954 0.484112C23.5644 0.329507 23.4033 0.203068 23.222 0.112432C23.0407 0.0217954 22.8429 -0.0311591 22.6406 -0.0432341C22.4383 -0.0553091 22.2356 -0.0262541 22.0448 0.0421766C21.854 0.110607 21.6791 0.216994 21.5306 0.354913L17.7676 3.53991C17.3067 3.92423 16.719 4.12286 16.1195 4.09697C15.52 4.07108 14.9516 3.82253 14.5256 3.39991C13.5876 2.45934 12.3354 1.89831 11.0091 1.82448C9.68289 1.75066 8.3761 2.16925 7.33958 2.99991L5.06258 4.82891C4.81999 5.02311 4.6437 5.28786 4.55807 5.58658C4.47244 5.88529 4.4817 6.20323 4.58457 6.49645C4.68743 6.78968 4.87883 7.04372 5.13231 7.22348C5.38578 7.40323 5.68883 7.49983 5.99958 7.49991Z" fill="#313135"/>
</g>
<defs>
<clipPath id="clip0_15099_1308">
<rect width="24" height="24" fill="white"/>
</clipPath>
</defs>
</svg>
