<svg width="50" height="50" viewBox="0 0 50 50" fill="none" xmlns="http://www.w3.org/2000/svg">
<g clip-path="url(#clip0_3126_2533)">
<path d="M46.4908 0H3.50921C1.57113 0 0 1.57113 0 3.50921V46.4908C0 48.4289 1.57113 50 3.50921 50H46.4908C48.4289 50 50 48.4289 50 46.4908V3.50921C50 1.57113 48.4289 0 46.4908 0Z" fill="#022222"/>
<mask id="mask0_3126_2533" style="mask-type:luminance" maskUnits="userSpaceOnUse" x="4" y="10" width="42" height="30">
<mask id="mask1_3126_2533" style="mask-type:luminance" maskUnits="userSpaceOnUse" x="4" y="10" width="42" height="30">
<path d="M45.4902 10.8975H4.50781V39.1004H45.4902V10.8975Z" fill="white"/>
</mask>
<g mask="url(#mask1_3126_2533)">
<path d="M5.07242 23.9456C5.07242 23.9456 5.99783 23.7928 6.37828 24.1909C6.76019 24.589 6.51048 25.413 6.00371 25.4263C5.49694 25.4395 5.02983 25.5335 4.69785 25.1809C4.36588 24.8284 4.45548 24.1189 5.07242 23.9456ZM15.1153 29.5686C15.0257 29.5774 14.9317 29.5377 14.8348 29.4687C14.1708 28.5447 13.9314 25.3837 13.6273 25.1956C13.3115 25.0003 12.1687 26.9466 9.89483 26.738C8.94445 26.6498 7.97645 26.0344 7.40651 25.6069C7.45939 24.8886 7.4682 23.2111 8.8857 23.7576C9.74647 24.0881 11.2198 24.9988 12.5139 23.3654C13.9446 21.5586 14.7334 22.083 15.2064 22.4767C15.6794 22.8689 15.3636 24.9121 16.0701 24.3407C16.7752 23.7693 19.6248 20.2249 19.6248 20.2249C19.6248 20.2249 21.8311 17.9995 22.169 20.3394C22.5068 22.6779 23.9449 25.2705 24.3268 25.1971C24.7087 25.1237 29.1463 16.1031 29.7823 15.5214C30.4183 14.9398 32.5571 15.0161 32.4557 16.5085C32.3544 18.0009 32.1355 27.28 32.1355 27.28C32.1355 27.28 31.8843 29.8947 32.2927 28.4977C32.4616 27.919 32.6437 27.3961 32.8714 26.7865C33.9672 23.2802 35.8327 17.29 36.7625 14.2038C36.977 13.465 37.1606 12.8319 37.3031 12.3442C37.3589 12.1165 37.4133 11.9388 37.4691 11.7787C37.5469 11.5172 37.5998 11.3439 37.616 11.2983C37.6571 11.1823 37.7746 11.0942 37.9377 11.0295C38.1022 10.9267 38.2784 10.9208 38.4782 10.915C38.9938 10.868 39.6577 10.9355 40.2541 11.1059C40.4275 11.1133 40.6169 11.1691 40.7961 11.2969C40.7961 11.2969 40.8064 11.3042 40.8226 11.313C40.827 11.316 40.8314 11.3189 40.8358 11.3218C40.8725 11.3483 40.9342 11.3997 41.0033 11.4834C41.0047 11.4864 41.0077 11.4893 41.0106 11.4922C41.04 11.5275 41.0694 11.5701 41.0987 11.6171C41.4322 12.1062 41.6364 13.0067 41.4322 14.6048C40.921 18.5929 40.5244 26.7967 40.5244 26.7967C40.5244 26.7967 40.4451 27.1889 41.2677 25.4615C41.297 25.4013 41.3323 25.3499 41.3661 25.2941C41.4102 25.2647 41.4601 25.2221 41.5218 25.1486C42.03 24.5434 43.3946 24.188 44.3406 24.1953C44.7402 24.2438 45.0736 24.3437 45.2734 24.47C45.6465 25.0385 45.4261 27.1375 45.4261 27.1375C44.6388 27.211 43.1376 27.634 42.6058 27.7119C42.0741 27.7912 41.2647 31.246 40.141 30.8935C39.0173 30.5395 36.5128 28.9692 36.5128 28.7533C36.5128 28.5653 36.7097 26.2694 36.7611 25.6774C36.7655 25.6363 36.7684 25.5981 36.7714 25.5614C36.7714 25.5511 36.7743 25.5379 36.7743 25.5379C36.811 25.0722 36.7787 24.8681 36.5628 25.3337C36.3777 25.7347 35.5713 28.298 34.6708 31.0903C34.5753 31.3342 32.8758 36.4797 32.6526 37.107C32.3867 37.8341 32.1619 38.3923 32.0077 38.6802C31.7727 38.9989 31.4554 39.1987 31.0133 39.065C29.9086 38.7316 28.5117 37.2054 28.4985 36.8264C28.4721 34.6921 28.6028 23.2111 28.0843 24.1689C27.5525 25.1501 23.422 31.957 23.422 31.957C23.3529 31.9687 23.3015 31.9673 23.2413 31.9717C22.949 31.9394 22.4951 31.8454 22.3702 31.5648C22.3629 31.5486 22.3541 31.534 22.3482 31.5163C22.3423 31.4987 22.335 31.4796 22.3247 31.4473C22.2689 31.2593 22.2454 31.0566 22.1969 30.8891C22.0118 30.2648 21.7166 29.3717 21.4066 28.4625C20.9307 26.9128 20.4416 25.3264 20.3608 25.1516C20.2036 24.8093 19.973 24.9533 19.7673 25.1516C18.8449 25.933 16.8868 29.3849 15.1183 29.5744" fill="white"/>
</g>
</mask>
<g mask="url(#mask0_3126_2533)">
<path d="M46.2247 10.1631H3.77344V39.8349H46.2247V10.1631Z" fill="#FFA100"/>
</g>
</g>
<defs>
<clipPath id="clip0_3126_2533">
<rect width="50" height="50" rx="10" fill="white"/>
</clipPath>
</defs>
</svg>
