<svg width="18" height="18" viewBox="0 0 18 18" fill="none" xmlns="http://www.w3.org/2000/svg">
<g clip-path="url(#clip0_9272_3028)">
<path d="M13.1692 0C14.1249 0 15.0589 0.279814 15.8535 0.803845C16.648 1.32788 17.2672 2.07278 17.6329 2.94403C17.9985 3.81557 18.0943 4.77434 17.9078 5.69957C17.7213 6.62479 17.2613 7.47445 16.5856 8.14145C15.9099 8.80845 15.0492 9.26275 14.1119 9.44657C13.1746 9.63068 12.2033 9.53614 11.3204 9.17521C10.4374 8.81428 9.6831 8.20301 9.15223 7.41872C8.62136 6.63442 8.33789 5.71241 8.33789 4.76909C8.33937 3.50482 8.84866 2.29249 9.75434 1.39849C10.6603 0.50419 11.8882 0.00145888 13.1692 0ZM11.5586 5.16649H12.7664V6.35869C12.7664 6.46402 12.8089 6.56527 12.8843 6.63967C12.9597 6.71408 13.0622 6.75609 13.1689 6.75609C13.2757 6.75609 13.3782 6.71408 13.4536 6.63967C13.529 6.56527 13.5715 6.46402 13.5715 6.35869V5.16649H14.7793C14.886 5.16649 14.9886 5.12448 15.0639 5.05007C15.1393 4.97567 15.1819 4.87442 15.1819 4.76909C15.1819 4.66376 15.1393 4.56251 15.0639 4.48811C14.9886 4.41371 14.886 4.37169 14.7793 4.37169H13.5715V3.17949C13.5715 3.07416 13.529 2.97291 13.4536 2.89851C13.3782 2.82411 13.2757 2.78209 13.1689 2.78209C13.0622 2.78209 12.9597 2.82411 12.8843 2.89851C12.8089 2.97291 12.7664 3.07416 12.7664 3.17949V4.37169H11.5586C11.4519 4.37169 11.3493 4.41371 11.2739 4.48811C11.1986 4.56251 11.156 4.66376 11.156 4.76909C11.156 4.87442 11.1986 4.97567 11.2739 5.05007C11.3493 5.12448 11.4519 5.16649 11.5586 5.16649Z" fill="white"/>
<path d="M7.68701 4.76913C7.68701 4.47939 7.71036 4.19491 7.7547 3.91772L6.35569 4.17653C4.86446 4.45226 3.7838 5.73754 3.7835 7.23523V13.3663C3.4019 13.1422 2.9665 13.0229 2.52223 13.0203C1.12914 13.0203 0 14.1352 0 15.51C0 16.8849 1.12943 17.9997 2.52223 17.9997C3.91504 17.9997 5.04447 16.8849 5.04447 15.51V9.83058C5.04447 9.23127 5.47691 8.71716 6.0737 8.60687L8.84334 8.09334C8.11856 7.176 7.68671 6.02202 7.68671 4.76855L7.68701 4.76913Z" fill="white"/>
<path d="M13.8724 10.136V11.5015C13.4908 11.2766 13.0557 11.1564 12.6111 11.1529C11.218 11.1529 10.0889 12.2677 10.0889 13.6426C10.0889 15.0174 11.2183 16.1323 12.6111 16.1323C14.0039 16.1323 15.1333 15.0177 15.1333 13.6426V9.82178C14.7334 9.9735 14.311 10.0806 13.8721 10.136H13.8724Z" fill="white"/>
</g>
<defs>
<clipPath id="clip0_9272_3028">
<rect width="18" height="18" fill="white"/>
</clipPath>
</defs>
</svg>
