<?xml version="1.0" encoding="UTF-8"?>
<svg id="Layer_1" xmlns="http://www.w3.org/2000/svg" version="1.1" viewBox="0 0 1953.2 1000">
  <!-- Generator: Adobe Illustrator 29.0.0, SVG Export Plug-In . SVG Version: 2.1.0 Build 186)  -->
  <defs>
    <style>
      .st0 {
        fill: #121119;
        fill-rule: evenodd;
      }
    </style>
  </defs>
  <path class="st0" d="M94.25,682.47v-365.88h5.17c38.5,0,77-.18,115.5.05,34.21.21,67.32,6.08,98.14,21.61,52.1,26.25,81.51,69.17,90.81,126.13,6.07,37.15,3.57,73.88-10.32,109.13-21.03,53.37-61.05,85.54-115.45,100.9-20.47,5.78-41.45,8.26-62.71,8.26-39,.01-78,.01-117,0-1.29.01-2.59-.12-4.14-.2ZM170.7,606.59c11.52,0,22.64-.11,33.76.03,15.86.2,31.64-.41,47.15-4.1,28.27-6.72,51.46-20.64,65.75-46.9,11.29-20.73,13.78-43.23,12.48-66.34-2.67-47.53-29.98-80.37-76.15-91.88-27.06-6.74-54.6-4.47-82.02-4.54-.25,0-.51.38-.98.75,0,70.59,0,141.35,0,212.98Z"/>
  <path class="st0" d="M1674.41,316.56c102.42,0,184.57,81.96,184.53,184.12-.03,101.07-82.73,182.84-184.86,182.8-101.72-.04-184.09-82.22-184.06-183.63.03-101.31,82.5-183.29,184.39-183.29ZM1784.72,499.89c-.1-60.41-49.35-109.39-110.07-109.45-60.95-.06-110.42,49.13-110.32,109.69.1,60.64,49.58,109.62,110.56,109.45,60.69-.17,109.92-49.34,109.83-109.69Z"/>
  <path class="st0" d="M774.27,536.85h-145.97v-75.84h145.78v-144.14h76.67v144.01h145.95v75.97h-145.85v145.23h-76.58c0-48.31,0-96.4,0-145.23Z"/>
  <path class="st0" d="M1417.56,536.95h-145.88v145.17h-76.39v-145.09h-145.88v-75.97h145.61v-144.27h76.5v143.89h146.05c-.01,25.65-.01,50.67-.01,76.27Z"/>
  <path class="st0" d="M556.38,682.32h-75.62v-365.46h75.62v365.46Z"/>
</svg>