<svg width="32" height="32" viewBox="0 0 32 32" fill="none" xmlns="http://www.w3.org/2000/svg">
<g clip-path="url(#clip0_9616_9986)">
<path d="M32 16.0974C32 24.0827 26.1413 30.7027 18.4933 31.9041V20.7534H22.212L22.92 16.1401H18.4933V13.1467C18.4933 11.8841 19.112 10.6547 21.0933 10.6547H23.1053V6.72675C23.1053 6.72675 21.2787 6.41475 19.5333 6.41475C15.888 6.41475 13.5067 8.62408 13.5067 12.6227V16.1387H9.45467V20.7521H13.5067V31.9027C5.86 30.7001 0 24.0814 0 16.0974C0 7.26141 7.164 0.0974121 16 0.0974121C24.836 0.0974121 32 7.26008 32 16.0974Z" fill="white"/>
</g>
<defs>
<clipPath id="clip0_9616_9986">
<rect width="32" height="32" fill="white"/>
</clipPath>
</defs>
</svg>
