<svg width="24" height="24" viewBox="0 0 24 24" fill="none" xmlns="http://www.w3.org/2000/svg">
<g clip-path="url(#clip0_15371_2491)">
<path d="M23.12 11.88C21.99 10.75 20.01 10.75 18.88 11.88L11 19.76V24H15.24L23.12 16.12C23.69 15.55 24 14.8 24 14C24 13.2 23.69 12.45 23.12 11.88ZM21.71 14.71L14.42 22H13.01V20.59L20.3 13.3C20.68 12.92 21.34 12.92 21.71 13.3C21.9 13.49 22 13.74 22 14.01C22 14.28 21.9 14.53 21.71 14.72V14.71ZM2 3C2 2.45 2.45 2 3 2H10V8H16V11.93L18 9.93V6.59L11.41 0H3C1.35 0 0 1.35 0 3V22H9V20H2V3ZM12 3.41L14.59 6H12V3.41ZM13.95 13.98C13.97 13.82 14 13.67 14 13.5C14 12.67 13.33 12 12.5 12C11.67 12 11 12.67 11 13.5C11 13.96 11.06 14.37 11.16 14.73C10.64 14.98 10.11 15 9.99 15C9.48 15 8.97 14.83 8.49 14.55C9.41 13.45 9.99 12.13 9.99 11C9.99 9.35 8.64 8 6.99 8C5.34 8 3.99 9.35 3.99 11C3.99 12.14 4.57 13.45 5.49 14.55C5.01 14.83 4.5 15 3.99 15V17C5.04 17 6.08 16.59 6.99 15.95C7.9 16.59 8.94 17 9.99 17C10.29 17 10.66 16.96 11.04 16.88L13.94 13.98H13.95ZM7 13.24C6.39 12.48 6 11.63 6 11C6 10.45 6.45 10 7 10C7.55 10 8 10.45 8 11C8 11.63 7.61 12.48 7 13.24Z" fill="white"/>
</g>
<defs>
<clipPath id="clip0_15371_2491">
<rect width="24" height="24" fill="white"/>
</clipPath>
</defs>
</svg>
