<svg width="24" height="24" viewBox="0 0 24 24" fill="none" xmlns="http://www.w3.org/2000/svg">
<g clip-path="url(#clip0_15371_2473)">
<path d="M22.965 12.734C23.29 13.0154 23.5506 13.3633 23.7292 13.7543C23.9078 14.1453 24.0001 14.5702 24 15V20.5C24 22 23 23 21.5 23C21.1507 22.9996 20.8054 22.9261 20.4863 22.7841C20.1671 22.6421 19.8813 22.4349 19.6472 22.1757C19.4131 21.9164 19.2359 21.6111 19.127 21.2792C19.0182 20.9473 18.9801 20.5963 19.0152 20.2488C19.0503 19.9012 19.1578 19.5649 19.3308 19.2615C19.5039 18.9581 19.7386 18.6943 20.0198 18.4872C20.301 18.28 20.6225 18.1341 20.9636 18.0588C21.3046 17.9835 21.6577 17.9805 22 18.05V15C22.0008 14.8567 21.9703 14.7149 21.9107 14.5845C21.8512 14.4541 21.7639 14.3382 21.655 14.245C21.5482 14.1491 21.4212 14.0784 21.2835 14.0379C21.1458 13.9974 21.0007 13.9882 20.859 14.011L17.859 14.44C17.369 14.509 17 14.935 17 15.429V21.5C17 23 16 24 14.5 24C14.1507 23.9996 13.8054 23.9261 13.4863 23.7841C13.1671 23.6421 12.8813 23.4349 12.6472 23.1757C12.4131 22.9164 12.2359 22.6111 12.127 22.2792C12.0182 21.9473 11.9801 21.5963 12.0152 21.2488C12.0503 20.9012 12.1578 20.5649 12.3308 20.2615C12.5039 19.9581 12.7386 19.6943 13.0198 19.4872C13.301 19.28 13.6225 19.1341 13.9636 19.0588C14.3046 18.9835 14.6577 18.9805 15 19.05V15.428C15.0029 14.7067 15.2645 14.0104 15.7372 13.4656C16.2099 12.9208 16.8623 12.5636 17.576 12.459L20.576 12.03C21.0015 11.9683 21.4353 11.9991 21.8478 12.1204C22.2603 12.2418 22.6417 12.4507 22.966 12.733L22.965 12.734ZM24 7V9C24 9.26522 23.8946 9.51957 23.7071 9.70711C23.5196 9.89464 23.2652 10 23 10C22.7348 10 22.4804 9.89464 22.2929 9.70711C22.1054 9.51957 22 9.26522 22 9V8H2V17C2 18.654 3.346 20 5 20H9C9.26522 20 9.51957 20.1054 9.70711 20.2929C9.89464 20.4804 10 20.7348 10 21C10 21.2652 9.89464 21.5196 9.70711 21.7071C9.51957 21.8946 9.26522 22 9 22H5C2.243 22 0 19.757 0 17V5C0 2.243 2.243 0 5 0H7.528C7.991 0 8.455 0.109 8.869 0.316L12.025 1.894C12.163 1.963 12.318 1.999 12.472 1.999H19C21.757 1.999 24 4.243 24 7ZM2 6H21.816C21.6104 5.41677 21.2294 4.91144 20.7252 4.55336C20.221 4.19528 19.6184 4.00198 19 4H12.472C12.009 4 11.545 3.891 11.131 3.684L7.975 2.106C7.8361 2.03698 7.68311 2.00104 7.528 2.001H5C3.346 2.001 2 3.347 2 5.001V6Z" fill="white"/>
</g>
<defs>
<clipPath id="clip0_15371_2473">
<rect width="24" height="24" fill="white"/>
</clipPath>
</defs>
</svg>
