<svg width="24" height="24" viewBox="0 0 24 24" fill="none" xmlns="http://www.w3.org/2000/svg">
<path d="M19.7806 10.1074C19.5886 10.1074 19.3966 10.1204 19.2089 10.1466C18.9079 7.85958 18.4661 6.39307 18.4453 6.31996C18.3922 6.1452 18.296 5.98659 18.1656 5.85867C18.0353 5.73075 17.8749 5.63761 17.6992 5.5878C17.6239 5.56597 16.1164 5.1426 13.9194 4.84145C13.9478 4.64266 13.962 4.44211 13.9619 4.24131C13.9619 1.90188 12.0704 0 9.74356 0C7.41675 0 5.52629 1.90188 5.52629 4.24131C5.52629 4.44318 5.54157 4.64286 5.56884 4.84254C3.37403 5.1426 1.86428 5.56597 1.78901 5.5878C1.6125 5.63788 1.45143 5.73159 1.32065 5.86031C1.18988 5.98903 1.09359 6.1486 1.04068 6.32432C0.998136 6.46617 0 9.84548 0 14.3476C0 18.8868 0.999227 22.2344 1.04177 22.373C1.09478 22.5481 1.19102 22.7071 1.32161 22.8352C1.4522 22.9634 1.61294 23.0566 1.78901 23.1063C1.87519 23.1303 3.93364 23.7086 6.76224 23.9945C6.95082 24.0135 7.14112 23.9831 7.31438 23.9063C7.48764 23.8294 7.63789 23.7087 7.75031 23.556C7.86273 23.4034 7.93344 23.224 7.95548 23.0357C7.97753 22.8474 7.95013 22.6566 7.87601 22.4821C7.7655 22.2238 7.70872 21.9458 7.7091 21.6648C7.7091 20.5311 8.62215 19.608 9.74465 19.608C10.8671 19.608 11.7813 20.5311 11.7813 21.6648C11.7813 21.9464 11.7246 22.2202 11.6144 22.4799C11.5398 22.6542 11.512 22.845 11.5338 23.0333C11.5556 23.2217 11.6263 23.401 11.7387 23.5536C11.8505 23.7071 12.0006 23.8285 12.1741 23.9057C12.3476 23.9829 12.5382 24.0131 12.7271 23.9934C15.5524 23.7075 17.613 23.1303 17.6992 23.1063C18.057 23.0048 18.3395 22.7276 18.4475 22.3708C18.4693 22.2977 18.9068 20.8236 19.2079 18.5463C19.3977 18.5714 19.5897 18.5856 19.7816 18.5856C22.1084 18.5856 24 16.6837 24 14.3465C24 12.0092 22.1084 10.1063 19.7816 10.1063L19.7806 10.1074ZM19.7806 16.4044C19.438 16.4044 19.0988 16.3171 18.801 16.1502C18.6426 16.061 18.4643 16.0132 18.2826 16.0113C18.1008 16.0094 17.9216 16.0534 17.7614 16.1392C17.6006 16.2238 17.4636 16.3473 17.3628 16.4984C17.262 16.6496 17.2006 16.8236 17.1843 17.0045C17.06 18.4033 16.8347 19.7912 16.5102 21.1575C15.9615 21.2862 15.067 21.4783 13.963 21.6408C13.9499 19.3145 12.0627 17.4268 9.74465 17.4268C7.42657 17.4268 5.54048 19.3156 5.52739 21.6419C4.67129 21.5157 3.82078 21.3541 2.97805 21.1575C2.45162 18.9261 2.18477 16.6413 2.18281 14.3487C2.18281 11.2291 2.7097 8.65066 2.97805 7.53987C4.3413 7.22313 5.72384 6.99605 7.11677 6.86008C7.29715 6.84347 7.47053 6.78205 7.62116 6.6814C7.77179 6.58076 7.8949 6.44407 7.97932 6.28375C8.06374 6.12344 8.10678 5.94457 8.10455 5.76339C8.10232 5.58221 8.05489 5.40445 7.96655 5.24626C7.7961 4.94 7.70708 4.59511 7.70801 4.24459C7.70801 3.10979 8.62106 2.18558 9.74356 2.18558C10.8661 2.18558 11.7802 3.10979 11.7802 4.24459C11.7802 4.59921 11.694 4.93529 11.5227 5.24408C11.4342 5.40223 11.3865 5.58 11.3841 5.76125C11.3817 5.9425 11.4246 6.12148 11.5089 6.28193C11.5933 6.44237 11.7163 6.5792 11.8669 6.67998C12.0176 6.78076 12.191 6.84229 12.3714 6.85899C14.2019 7.03576 15.7182 7.35219 16.5112 7.53987C16.6989 8.31131 17.0141 9.79637 17.1843 11.6906C17.2004 11.8717 17.2615 12.046 17.3621 12.1974C17.4627 12.3489 17.5995 12.4728 17.7602 12.5578C17.9209 12.6428 18.1003 12.6863 18.2821 12.6843C18.4639 12.6822 18.6422 12.6347 18.801 12.5461C19.1031 12.377 19.4337 12.2918 19.7795 12.2918C20.902 12.2918 21.8161 13.215 21.8161 14.3498C21.8161 15.4846 20.902 16.4066 19.7795 16.4066L19.7806 16.4044Z" fill="white"/>
</svg>
