<svg width="24" height="24" viewBox="0 0 24 24" fill="none" xmlns="http://www.w3.org/2000/svg">
<path d="M23.9901 11.0436C24.0254 11.4771 23.9659 11.913 23.8158 12.3211C23.6656 12.7293 23.4285 13.0999 23.1208 13.4073C21.6311 14.8222 19.8273 16.5239 19.5872 16.6979C19.3727 16.8537 19.1053 16.9182 18.8433 16.8773C18.5814 16.8365 18.3463 16.6936 18.1896 16.4799C18.0352 16.2687 17.9697 16.0054 18.0073 15.7465C18.0449 15.4876 18.1825 15.2538 18.3907 15.0951C18.6208 14.9051 20.2745 13.3503 21.7241 11.9745C21.8216 11.8727 21.8962 11.7513 21.943 11.6183C21.9898 11.4854 22.0076 11.344 21.9953 11.2036C21.9835 11.0568 21.9394 10.9144 21.866 10.7866C21.7927 10.6589 21.692 10.5489 21.5711 10.4647C21.1909 10.1907 20.5946 10.2747 20.2155 10.6537C20.0759 10.7938 19.8979 10.8893 19.704 10.9283C19.5101 10.9672 19.3089 10.9478 19.1261 10.8724C18.9432 10.797 18.7869 10.6691 18.6768 10.5049C18.5667 10.3406 18.5079 10.1474 18.5077 9.94976L18.4877 3.74954C18.4877 3.60159 18.4439 3.45696 18.3616 3.33394C18.2794 3.21091 18.1625 3.11503 18.0258 3.0584C17.889 3.00178 17.7385 2.98697 17.5933 3.01584C17.4481 3.04472 17.3148 3.11597 17.2101 3.2206C17.0827 3.35155 17.0082 3.525 17.001 3.70754L16.997 5.99926C16.997 6.26444 16.8916 6.51876 16.704 6.70627C16.5164 6.89379 16.2619 6.99913 15.9966 6.99913C15.7313 6.99913 15.4768 6.89379 15.2892 6.70627C15.1016 6.51876 14.9961 6.26444 14.9961 5.99926L15.0021 2.74366C15.0054 2.64348 14.9884 2.54367 14.9522 2.45019C14.916 2.35671 14.8613 2.27149 14.7914 2.19962C14.7215 2.12774 14.6378 2.07068 14.5453 2.03185C14.4528 1.99302 14.3535 1.97322 14.2532 1.97362C14.1529 1.97403 14.0537 1.99463 13.9616 2.0342C13.8694 2.07377 13.7862 2.1315 13.7169 2.20394C13.6476 2.27637 13.5935 2.36203 13.5581 2.4558C13.5226 2.54956 13.5064 2.64951 13.5105 2.74966L13.4955 4.01251C13.4927 4.23856 13.4133 4.457 13.2703 4.63217C13.1273 4.80735 12.9292 4.92893 12.7082 4.97707C12.4872 5.02522 12.2563 4.99709 12.0534 4.89727C11.8504 4.79745 11.6873 4.63184 11.5906 4.42745C11.4946 4.22448 11.1164 3.99751 10.7543 3.99751C10.612 3.99785 10.4727 4.03841 10.3525 4.11448C10.2323 4.19056 10.1361 4.29906 10.075 4.42745C10.0187 4.54615 9.93966 4.65262 9.84226 4.74078C9.74486 4.82894 9.63104 4.89706 9.50729 4.94126C9.38355 4.98545 9.25231 5.00485 9.12106 4.99836C8.98982 4.99186 8.86114 4.95959 8.74237 4.90339C8.50251 4.7899 8.31758 4.58581 8.22828 4.33605C8.13897 4.08628 8.1526 3.81129 8.26616 3.57156C8.83841 2.36171 10.3061 1.74979 11.5806 2.11374C11.6947 1.6278 11.9438 1.17586 12.309 0.808907C12.5636 0.551828 12.8669 0.347923 13.2011 0.209055C13.5353 0.0701865 13.8939 -0.00087363 14.2558 8.10603e-06C15.2273 8.10603e-06 16.0776 0.509944 16.5668 1.27185C16.9329 1.09509 17.3338 1.00218 17.7404 0.999883C18.4689 1.00041 19.1675 1.28982 19.6827 1.80459C20.198 2.31936 20.4878 3.01742 20.4886 3.74554L20.5036 8.35196C20.8904 8.28004 21.2877 8.28625 21.6721 8.37022C22.0564 8.4542 22.4201 8.61423 22.7416 8.8409C23.097 9.09517 23.3929 9.42374 23.6085 9.80378C23.8241 10.1838 23.9543 10.6062 23.9901 11.0416V11.0436ZM15.1952 8.8099C15.7155 9.33184 16.0006 10.0258 15.9966 10.7627V18.0008C15.9966 21.3093 13.3044 24 9.99393 24H8.40122C6.59642 24 4.89966 23.2981 3.6231 22.0212L0.895887 19.4226C0.583424 19.1143 0.342182 18.7415 0.189065 18.3303C0.0359475 17.919 -0.0253409 17.4793 0.00949363 17.0419C0.0452484 16.6064 0.17546 16.184 0.391075 15.804C0.606691 15.4239 0.902538 15.0954 1.25805 14.8411C1.90834 14.3722 2.7187 14.2172 3.49604 14.3532L3.51105 9.74379C3.51264 9.01618 3.80282 8.3189 4.31798 7.80478C4.83314 7.29066 5.53125 7.00166 6.25927 7.00113C6.67345 7.00113 7.06963 7.10112 7.43279 7.2741C7.6533 6.92687 7.9492 6.63371 8.29855 6.41637C8.64789 6.19903 9.04171 6.06308 9.4508 6.01862C9.85988 5.97415 10.2737 6.0223 10.6617 6.1595C11.0496 6.2967 11.4016 6.51942 11.6917 6.81115C12.0608 7.18211 12.305 7.64205 12.417 8.14099C12.6844 8.05081 12.9642 8.00291 13.2464 7.99901C13.609 7.99804 13.9681 8.06925 14.3029 8.20847C14.6377 8.3477 14.9404 8.55215 15.1952 8.8099ZM13.9957 10.7577C13.9966 10.6581 13.9777 10.5593 13.9403 10.467C13.9029 10.3747 13.8476 10.2906 13.7776 10.2197C13.6729 10.1144 13.5393 10.0425 13.3937 10.0132C13.248 9.98386 13.097 9.99838 12.9596 10.0549C12.8223 10.1115 12.7048 10.2075 12.6221 10.3308C12.5394 10.4541 12.4952 10.5992 12.495 10.7477C12.495 10.7567 12.49 10.7647 12.49 10.7737V14.0013C12.49 14.2664 12.3846 14.5208 12.197 14.7083C12.0094 14.8958 11.7549 15.0011 11.4896 15.0011C11.2243 15.0011 10.9698 14.8958 10.7822 14.7083C10.5946 14.5208 10.4891 14.2664 10.4891 14.0013V8.75591C10.4899 8.65739 10.4713 8.55969 10.4342 8.4684C10.3972 8.3771 10.3425 8.29401 10.2732 8.22389C10.204 8.15376 10.1216 8.09798 10.0307 8.05973C9.93989 8.02148 9.84239 8.00153 9.74382 8.00101C9.54622 8.00101 9.35669 8.07932 9.21679 8.21877C9.07688 8.35822 8.99801 8.54743 8.99748 8.74491L9.00749 14.0003C9.00749 14.2654 8.90208 14.5198 8.71447 14.7073C8.52684 14.8948 8.27238 15.0001 8.00704 15.0001C7.74171 15.0001 7.48724 14.8948 7.29962 14.7073C7.112 14.5198 7.0066 14.2654 7.0066 14.0003L6.9986 9.71079C6.99208 9.51964 6.91117 9.33859 6.77308 9.20618C6.63499 9.07377 6.45063 9.00047 6.25927 9.00188C6.06124 9.00188 5.8713 9.08043 5.73118 9.22029C5.59106 9.36015 5.5122 9.54987 5.51194 9.74779L5.49193 15.951C5.49082 16.1483 5.43142 16.3408 5.32118 16.5044C5.21094 16.668 5.05478 16.7955 4.87232 16.8707C4.68985 16.9459 4.48922 16.9655 4.29562 16.9271C4.10202 16.8888 3.92409 16.7941 3.78417 16.6549C3.403 16.274 2.80774 16.192 2.42757 16.4659C2.30779 16.5498 2.20785 16.6589 2.13477 16.7855C2.06169 16.9121 2.01725 17.0532 2.00456 17.1988C1.99188 17.3445 2.01127 17.4911 2.06136 17.6284C2.11145 17.7658 2.19103 17.8905 2.29451 17.9938L5.02172 20.5924C5.4635 21.0397 5.98991 21.3945 6.57029 21.6364C7.15067 21.8783 7.77341 22.0023 8.40222 22.0013H9.99493C12.2019 22.0013 13.9967 20.2075 13.9967 18.0018V10.7587L13.9957 10.7577Z" fill="white"/>
</svg>
