<svg width="24" height="24" viewBox="0 0 24 24" fill="none" xmlns="http://www.w3.org/2000/svg">
<g clip-path="url(#clip0_15099_1327)">
<path d="M7.89618 16.1039C7.31018 15.5189 7.31018 14.5679 7.89618 13.9829C8.48218 13.3969 9.43118 13.3969 10.0172 13.9829C11.3432 15.3089 13.6572 15.3099 14.9832 13.9829L19.9722 8.99394C21.3412 7.62494 21.3412 5.39694 19.9722 4.02794C18.6032 2.65894 16.3752 2.65894 15.0062 4.02794C14.4202 4.61394 13.4712 4.61394 12.8852 4.02794C12.2992 3.44294 12.2992 2.49194 12.8852 1.90694C15.4232 -0.632064 19.5552 -0.632064 22.0932 1.90694C24.6322 4.44594 24.6322 8.57594 22.0932 11.1149L17.1042 16.1039C15.8342 17.3739 14.1672 18.0079 12.5002 18.0079C10.8332 18.0079 9.16518 17.3729 7.89618 16.1039ZM6.51218 23.9969C8.17918 23.9969 9.84618 23.3619 11.1162 22.0929C11.7022 21.5079 11.7022 20.5569 11.1162 19.9719C10.5302 19.3859 9.58118 19.3859 8.99518 19.9719C7.62518 21.3419 5.39718 21.3409 4.02918 19.9719C2.66018 18.6029 2.66018 16.3749 4.02918 15.0059L8.99018 10.0449C10.3602 8.67494 12.5882 8.67494 13.9562 10.0449C14.5422 10.6309 15.4912 10.6309 16.0772 10.0449C16.6632 9.45994 16.6632 8.50893 16.0772 7.92394C13.5382 5.38494 9.40818 5.38494 6.86918 7.92394L1.90718 12.8849C-0.63182 15.4239 -0.63182 19.5539 1.90718 22.0929C3.17718 23.3629 4.84518 23.9969 6.51218 23.9969Z" fill="#313135"/>
</g>
<defs>
<clipPath id="clip0_15099_1327">
<rect width="24" height="24" fill="white"/>
</clipPath>
</defs>
</svg>
