<svg width="24" height="24" viewBox="0 0 24 24" fill="none" xmlns="http://www.w3.org/2000/svg">
<path d="M12 9.53674e-07C5.37258 9.53674e-07 0 5.37258 0 12C0 18.6274 5.37258 24 12 24C18.6274 24 24 18.6274 24 12C23.9928 5.37555 18.6244 0.00716496 12 9.53674e-07ZM12 22C6.47715 22 2 17.5228 2 12C2 6.47715 6.47715 2 12 2C17.5228 2 22 6.47715 22 12C21.9939 17.5203 17.5203 21.9939 12 22Z" fill="#626984"/>
<path d="M12.717 5.06287C11.5496 4.85016 10.3479 5.16678 9.43689 5.92717C8.52586 6.68756 7.99947 7.8132 8 8.99986C8 9.55215 8.44772 9.99987 9 9.99987C9.55229 9.99987 10 9.55215 10 8.99986C9.99949 8.40416 10.2646 7.83924 10.723 7.45889C11.1815 7.07855 11.7856 6.92236 12.371 7.03287C13.179 7.18972 13.8116 7.82031 13.971 8.62787C14.1324 9.47794 13.7289 10.3354 12.971 10.7529C11.7249 11.4748 10.9699 12.8171 11 14.2569V14.9999C11 15.5521 11.4477 15.9999 12 15.9999C12.5523 15.9999 13 15.5522 13 14.9999V14.2569C12.9745 13.5486 13.3291 12.8806 13.93 12.5049C15.4147 11.6894 16.2248 10.0272 15.9523 8.35539C15.6798 6.68357 14.3838 5.36464 12.717 5.06287Z" fill="#626984"/>
<path d="M11 18C11 17.4477 11.4477 17 12 17C12.5523 17 13 17.4477 13 18C13 18.5523 12.5523 19 12 19C11.4477 19 11 18.5523 11 18Z" fill="#626984"/>
</svg>
