<svg width="32" height="32" viewBox="0 0 32 32" fill="none" xmlns="http://www.w3.org/2000/svg">
<path d="M16 1C13.0333 1 10.1332 1.87973 7.66645 3.52796C5.19972 5.17618 3.27713 7.51886 2.14181 10.2597C1.0065 13.0006 0.709449 16.0166 1.28823 18.9264C1.86701 21.8361 3.29562 24.5088 5.3934 26.6066C7.49119 28.7044 10.1639 30.133 13.0737 30.7118C15.9834 31.2906 18.9994 30.9935 21.7403 29.8582C24.4812 28.7229 26.8238 26.8003 28.4721 24.3336C30.1203 21.8668 31 18.9667 31 16C30.9986 12.0222 29.4178 8.20772 26.605 5.39499C23.7923 2.58225 19.9778 1.00144 16 1ZM22.95 12.91C21.8944 12.9116 20.858 12.6284 19.95 12.09V19.55C19.9507 20.2659 19.8102 20.9749 19.5366 21.6365C19.2629 22.298 18.8615 22.8991 18.3553 23.4053C17.8491 23.9115 17.248 24.3129 16.5865 24.5866C15.9249 24.8602 15.2159 25.0007 14.5 25C14.1103 24.9997 13.7216 24.9595 13.34 24.88C12.0254 24.5942 10.8629 23.8325 10.076 22.7413C9.28912 21.6501 8.93345 20.3065 9.07738 18.9689C9.22131 17.6313 9.85469 16.3942 10.8557 15.4954C11.8567 14.5966 13.1547 14.0996 14.5 14.1V17.02C14.1234 17.0206 13.7517 17.1042 13.4111 17.265C13.0706 17.4257 12.7698 17.6596 12.53 17.95C12.2878 18.2483 12.1169 18.5979 12.0302 18.9722C11.9436 19.3465 11.9435 19.7357 12.03 20.11C12.1278 20.5798 12.3607 21.0107 12.7 21.35C13.0393 21.6893 13.4703 21.9222 13.94 22.02C14.3108 22.106 14.6963 22.1069 15.0675 22.0226C15.4387 21.9384 15.786 21.7711 16.0833 21.5334C16.3806 21.2958 16.6202 20.9939 16.7842 20.6503C16.9482 20.3068 17.0322 19.9306 17.03 19.55V7.08H17.04C17.04 7.05 17.0301 7.03 17.0301 7H19.9501C19.9524 7.79493 20.2692 8.55664 20.8313 9.11875C21.3934 9.68085 22.1551 9.99767 22.9501 10L22.95 12.91Z" fill="white"/>
</svg>
