<svg width="25" height="24" viewBox="0 0 25 24" fill="none" xmlns="http://www.w3.org/2000/svg">
<path d="M18.8079 15.9783C18.1174 15.9767 17.4334 16.1119 16.7954 16.376C16.1575 16.6402 15.5781 17.0282 15.0909 17.5175C13.6751 18.9414 11.991 20.0702 10.1359 20.8387C8.28083 21.6072 6.29173 22.0001 4.28379 21.9945H3.13068C2.90818 21.9949 2.6906 21.9292 2.50547 21.8057C2.32035 21.6823 2.17602 21.5067 2.09077 21.3012C2.00551 21.0957 1.98317 20.8695 2.02656 20.6513C2.06996 20.4331 2.17714 20.2326 2.33453 20.0754L3.02941 19.3805C4.95742 19.2811 6.77983 18.4692 8.14319 17.1023L12.4809 12.7697C12.9041 12.8834 13.3385 12.9507 13.7764 12.9702H14.0381C15.6345 12.969 17.1654 12.3351 18.2955 11.2075L19.2983 10.2048C19.887 9.61493 20.347 8.90941 20.6492 8.13276C20.9514 7.35611 21.0892 6.52522 21.054 5.6926C21.0205 4.85631 20.8114 4.03643 20.4401 3.28632C20.0688 2.5362 19.5438 1.87266 18.8992 1.33886C17.6948 0.384961 16.179 -0.0874393 14.6459 0.0133566C13.1129 0.114152 11.6719 0.780954 10.6028 1.88433L9.96811 2.52005C9.201 3.2844 8.64222 4.2323 8.34491 5.27359C8.04759 6.31488 8.02165 7.41493 8.26953 8.46908L3.88972 12.8489C2.52211 14.2117 1.71012 16.0344 1.61158 17.9627L0.916712 18.6575C0.478944 19.0953 0.180835 19.653 0.0600969 20.2602C-0.060641 20.8673 0.00141718 21.4967 0.238421 22.0686C0.475424 22.6405 0.876724 23.1292 1.39155 23.473C1.90639 23.8168 2.51161 24.0002 3.13068 23.9999H4.28379C6.55507 24.0061 8.80503 23.5617 10.9034 22.6926C13.0018 21.8234 14.907 20.5467 16.5087 18.9363C16.9634 18.4816 17.5427 18.172 18.1734 18.0465C18.804 17.9211 19.4577 17.9854 20.0518 18.2313C20.6459 18.4773 21.1538 18.8939 21.5112 19.4284C21.8685 19.963 22.0594 20.5915 22.0597 21.2345V22.9972C22.0597 23.2632 22.1653 23.5182 22.3534 23.7063C22.5414 23.8943 22.7965 23.9999 23.0624 23.9999C23.3283 23.9999 23.5834 23.8943 23.7714 23.7063C23.9595 23.5182 24.0651 23.2632 24.0651 22.9972V21.2345C24.0632 19.8409 23.5087 18.5049 22.5232 17.5195C21.5377 16.5342 20.2016 15.9799 18.8079 15.9783ZM11.3879 3.93386L12.0226 3.29814C12.8462 2.47057 13.9635 2.00204 15.131 1.99463C16.0349 1.98582 16.9126 2.29735 17.6087 2.874C18.0393 3.2296 18.3903 3.67182 18.6389 4.17193C18.8875 4.67203 19.0281 5.21884 19.0516 5.77682C19.0747 6.33184 18.9827 6.88564 18.7813 7.40335C18.58 7.92105 18.2736 8.39146 17.8814 8.78493L16.8787 9.78763C16.4848 10.1816 16.0131 10.4892 15.4937 10.6907C14.9742 10.8923 14.4185 10.9834 13.862 10.9584C13.3054 10.9333 12.7601 10.7925 12.261 10.545C11.7618 10.2975 11.3197 9.94874 10.9628 9.52091C10.3291 8.7025 10.0216 7.6781 10.0998 6.646C10.1779 5.6139 10.6362 4.6475 11.3859 3.93386H11.3879ZM5.30755 14.2667L9.15391 10.4193C9.24516 10.5497 9.31835 10.6901 9.42163 10.8134C9.75446 11.2066 10.1355 11.5562 10.5557 11.8542L6.72537 15.6845C5.90098 16.5115 4.84634 17.0706 3.69921 17.2888C3.91931 16.1427 4.4798 15.0895 5.30755 14.2667Z" fill="white"/>
</svg>
