<svg width="60" height="60" viewBox="0 0 60 60" fill="none" xmlns="http://www.w3.org/2000/svg">
<path d="M10 0.5H50C55.2467 0.5 59.5 4.7533 59.5 10V50C59.5 55.2467 55.2467 59.5 50 59.5H10C4.7533 59.5 0.5 55.2467 0.5 50V10C0.500001 4.7533 4.7533 0.5 10 0.5Z" fill="#150F0F" stroke="#707070"/>
<path d="M47.7021 20.6826C47.2705 19.0754 46.0255 17.8168 44.4295 17.387C42.2857 16.5535 21.5211 16.1451 15.4976 17.4108C13.9016 17.8455 12.6519 19.0992 12.225 20.7065C11.2574 24.9812 11.1839 34.2233 12.2487 38.5936C12.6803 40.2008 13.9253 41.4593 15.5213 41.8892C19.7663 42.8731 39.9474 43.0116 44.4532 41.8892C46.0492 41.4545 47.299 40.2008 47.7259 38.5936C48.7574 33.9367 48.831 25.2678 47.7021 20.6826Z" fill="#FF0000"/>
<path d="M36.0818 29.638L26.4062 24.0498V35.2263L36.0818 29.638Z" fill="white"/>
</svg>
